# xmcd
#
# Track frame offsets:
# 150
# 20890
# 43017
# 64435
# 86536
# 107402
# 125994
# 147350
# 169041
# 190509
# 213096
# 234877
# 254931
# 277851
# 298783
#
# Disc length: 4260 seconds
#
#
# Revision: 1
# Processed by: cddbd v1.5.1PL0 Copyright (c) Steve Scherf et al.
# Submitted via: FreeRIP 2.942 
#
DISCID=e210a20f
DTITLE=Varios 27 - Vallenatos de Oro vol 27
DYEAR=2002
DGENRE=Latin
TTITLE0=Mi Segunda Vida/Binomio de oro de america
TTITLE1=Un Nuevo Amor/Juan Villazon and Saul Lallemand
TTITLE2=Por una Mentira/Los diablitos
TTITLE3=Amor de Tres/Pasion vallenata
TTITLE4=Otra Primavera/Miguel Morales and Gabriel Maestre
TTITLE5=Para que no me olvides/Farid Ortiz and El negrito Osorio
TTITLE6=Que descaro/Los Gigantes del vallenato
TTITLE7=Dime como te olvido/Binomio de oro de america
TTITLE8=Te Amo, Te Amo/Los diablitos
TTITLE9=Ayudame a Olvidarla/Migueol Morales and Gabriel Maestre
TTITLE10=Antes que te Olvide/Dinastia Romero
TTITLE11=Solamente Tu/Farid Ortiz and El negrito Osorio
TTITLE12=Sobrenatural/Los gigantes del vallenato
TTITLE13=De la Noche a la Mañana/Jesus Manuel and Victor Nain
TTITLE14=La Chacha/Beto Villa y compañia
EXTD=
EXTT0=
EXTT1=
EXTT2=
EXTT3=
EXTT4=
EXTT5=
EXTT6=
EXTT7=
EXTT8=
EXTT9=
EXTT10=
EXTT11=
EXTT12=
EXTT13=
EXTT14=
PLAYORDER=
